<?xml version="1.0" encoding="UTF-8"?>
<!DOCTYPE svg PUBLIC "-//W3C//DTD SVG 1.1//EN" "http://www.w3.org/Graphics/SVG/1.1/DTD/svg11.dtd">
<!-- Creator: CorelDRAW X6 -->
<svg xmlns="http://www.w3.org/2000/svg" xml:space="preserve" width="24.4268mm" height="42.5471mm" version="1.1" style="shape-rendering:geometricPrecision; text-rendering:geometricPrecision; image-rendering:optimizeQuality; fill-rule:evenodd; clip-rule:evenodd"
viewBox="0 0 60 105"
 xmlns:xlink="http://www.w3.org/1999/xlink">
 <defs>
  <style type="text/css">
   <![CDATA[
    .fil50 {fill:none}
    .fil1 {fill:black}
    .fil3 {fill:#010101}
    .fil5 {fill:#020202}
    .fil7 {fill:#030303}
    .fil9 {fill:#040404}
    .fil11 {fill:#050505}
    .fil13 {fill:#060606}
    .fil15 {fill:#070707}
    .fil17 {fill:#080808}
    .fil19 {fill:#090909}
    .fil21 {fill:#0A0A0A}
    .fil23 {fill:#0B0B0B}
    .fil25 {fill:#0C0C0C}
    .fil27 {fill:#0D0D0D}
    .fil29 {fill:#0E0E0E}
    .fil31 {fill:#0F0F0F}
    .fil33 {fill:#101010}
    .fil35 {fill:#111111}
    .fil37 {fill:#121212}
    .fil39 {fill:#131313}
    .fil41 {fill:#141414}
    .fil43 {fill:#151515}
    .fil45 {fill:#161616}
    .fil47 {fill:#171717}
    .fil49 {fill:#181818}
    .fil48 {fill:#1A1A1A}
    .fil46 {fill:#1B1B1B}
    .fil44 {fill:#1C1C1C}
    .fil42 {fill:#1D1D1D}
    .fil40 {fill:#1E1E1E}
    .fil38 {fill:#1F1F1F}
    .fil36 {fill:#202020}
    .fil34 {fill:#212121}
    .fil32 {fill:#222222}
    .fil30 {fill:#232323}
    .fil28 {fill:#242424}
    .fil26 {fill:#252525}
    .fil24 {fill:#262626}
    .fil22 {fill:#272727}
    .fil20 {fill:#282828}
    .fil18 {fill:#292929}
    .fil16 {fill:#2A2A2A}
    .fil14 {fill:#2B2B2B}
    .fil12 {fill:#2C2C2C}
    .fil10 {fill:#2D2D2D}
    .fil8 {fill:#2E2E2E}
    .fil6 {fill:#2F2F2F}
    .fil4 {fill:#303030}
    .fil2 {fill:#313131}
    .fil0 {fill:#333333}
   ]]>
  </style>
   <clipPath id="id0">
    <path d="M0 0l60 0 0 105 -60 0 0 -105z"/>
   </clipPath>
     <clipPath id="id1">
      <path d="M0 19l15 8 15 8 0 17 0 17 -15 8 -15 8 0 -67z"/>
     </clipPath>
     <clipPath id="id2">
      <path d="M0 0l60 0 0 105 -60 0 0 -105z"/>
     </clipPath>
     <clipPath id="id3">
      <path d="M60 86l-15 -8 -15 -8 0 -17 0 -17 15 -8 15 -8 0 67z"/>
     </clipPath>
     <clipPath id="id4">
      <path d="M0 0l60 0 0 105 -60 0 0 -105z"/>
     </clipPath>
     <clipPath id="id5">
      <path d="M59 0l0 17 -15 8 -15 8 -15 -8 -15 -8 0 -17 58 0z"/>
     </clipPath>
     <clipPath id="id6">
      <path d="M0 0l60 0 0 105 -60 0 0 -105z"/>
     </clipPath>
     <clipPath id="id7">
      <path d="M30 72l15 8 15 8 0 17 -58 0 0 -17 15 -8 15 -8z"/>
     </clipPath>
     <clipPath id="id8">
      <path d="M0 0l60 0 0 105 -60 0 0 -105z"/>
     </clipPath>
 </defs>
 <g id="Ebene_x0020_1">
  <metadata id="CorelCorpID_0Corel-Layer"/>
  <g>
  </g>
  <g style="clip-path:url(#id0)">
   <g>
    <g>
    </g>
    <g style="clip-path:url(#id1)">
     <polygon class="fil0" points="0,53 44,54 44,51 "/>
     <polygon id="1" class="fil1" points="0,53 -44,51 -44,54 "/>
     <polygon id="2" class="fil2" points="0,53 44,51 44,48 "/>
     <polygon id="3" class="fil3" points="0,53 -44,54 -44,57 "/>
     <polygon id="4" class="fil4" points="0,53 44,48 44,46 "/>
     <polygon id="5" class="fil5" points="0,53 -44,57 -44,60 "/>
     <polygon id="6" class="fil6" points="0,53 44,46 43,43 "/>
     <polygon id="7" class="fil7" points="0,53 -44,60 -43,62 "/>
     <polygon id="8" class="fil8" points="0,53 43,43 43,40 "/>
     <polygon id="9" class="fil9" points="0,53 -43,62 -43,65 "/>
     <polygon id="10" class="fil10" points="0,53 43,40 42,37 "/>
     <polygon id="11" class="fil11" points="0,53 -43,65 -42,68 "/>
     <polygon id="12" class="fil12" points="0,53 42,37 41,35 "/>
     <polygon id="13" class="fil13" points="0,53 -42,68 -41,71 "/>
     <polygon id="14" class="fil14" points="0,53 41,35 39,32 "/>
     <polygon id="15" class="fil15" points="0,53 -41,71 -39,73 "/>
     <polygon id="16" class="fil16" points="0,53 39,32 38,30 "/>
     <polygon id="17" class="fil17" points="0,53 -39,73 -38,76 "/>
     <polygon id="18" class="fil18" points="0,53 38,30 36,27 "/>
     <polygon id="19" class="fil19" points="0,53 -38,76 -36,78 "/>
     <polygon id="20" class="fil20" points="0,53 36,27 35,25 "/>
     <polygon id="21" class="fil21" points="0,53 -36,78 -35,80 "/>
     <polygon id="22" class="fil22" points="0,53 35,25 33,23 "/>
     <polygon id="23" class="fil23" points="0,53 -35,80 -33,83 "/>
     <polygon id="24" class="fil24" points="0,53 33,23 31,21 "/>
     <polygon id="25" class="fil25" points="0,53 -33,83 -31,85 "/>
     <polygon id="26" class="fil26" points="0,53 31,21 29,19 "/>
     <polygon id="27" class="fil27" points="0,53 -31,85 -29,86 "/>
     <polygon id="28" class="fil28" points="0,53 29,19 27,17 "/>
     <polygon id="29" class="fil29" points="0,53 -29,86 -27,88 "/>
     <polygon id="30" class="fil30" points="0,53 27,17 24,15 "/>
     <polygon id="31" class="fil31" points="0,53 -27,88 -24,90 "/>
     <polygon id="32" class="fil32" points="0,53 24,15 22,14 "/>
     <polygon id="33" class="fil33" points="0,53 -24,90 -22,91 "/>
     <polygon id="34" class="fil34" points="0,53 22,14 19,13 "/>
     <polygon id="35" class="fil35" points="0,53 -22,91 -19,93 "/>
     <polygon id="36" class="fil36" points="0,53 19,13 17,11 "/>
     <polygon id="37" class="fil37" points="0,53 -19,93 -17,94 "/>
     <polygon id="38" class="fil38" points="0,53 17,11 14,10 "/>
     <polygon id="39" class="fil39" points="0,53 -17,94 -14,95 "/>
     <polygon id="40" class="fil40" points="0,53 14,10 11,10 "/>
     <polygon id="41" class="fil41" points="0,53 -14,95 -11,96 "/>
     <polygon id="42" class="fil42" points="0,53 11,10 9,9 "/>
     <polygon id="43" class="fil43" points="0,53 -11,96 -9,96 "/>
     <polygon id="44" class="fil44" points="0,53 9,9 6,8 "/>
     <polygon id="45" class="fil45" points="0,53 -9,96 -6,97 "/>
     <polygon id="46" class="fil46" points="0,53 6,8 3,8 "/>
     <polygon id="47" class="fil47" points="0,53 -6,97 -3,97 "/>
     <polygon id="48" class="fil48" points="0,53 3,8 0,8 "/>
     <polygon id="49" class="fil49" points="0,53 -3,97 0,97 "/>
     <polygon id="50" class="fil49" points="0,53 0,8 -3,8 "/>
     <polygon id="51" class="fil48" points="0,53 0,97 3,97 "/>
     <polygon id="52" class="fil47" points="0,53 -3,8 -6,8 "/>
     <polygon id="53" class="fil46" points="0,53 3,97 6,97 "/>
     <polygon id="54" class="fil45" points="0,53 -6,8 -9,9 "/>
     <polygon id="55" class="fil44" points="0,53 6,97 9,96 "/>
     <polygon id="56" class="fil43" points="0,53 -9,9 -11,10 "/>
     <polygon id="57" class="fil42" points="0,53 9,96 11,96 "/>
     <polygon id="58" class="fil41" points="0,53 -11,10 -14,10 "/>
     <polygon id="59" class="fil40" points="0,53 11,96 14,95 "/>
     <polygon id="60" class="fil39" points="0,53 -14,10 -17,11 "/>
     <polygon id="61" class="fil38" points="0,53 14,95 17,94 "/>
     <polygon id="62" class="fil37" points="0,53 -17,11 -19,13 "/>
     <polygon id="63" class="fil36" points="0,53 17,94 19,93 "/>
     <polygon id="64" class="fil35" points="0,53 -19,13 -22,14 "/>
     <polygon id="65" class="fil34" points="0,53 19,93 22,91 "/>
     <polygon id="66" class="fil33" points="0,53 -22,14 -24,15 "/>
     <polygon id="67" class="fil32" points="0,53 22,91 24,90 "/>
     <polygon id="68" class="fil31" points="0,53 -24,15 -27,17 "/>
     <polygon id="69" class="fil30" points="0,53 24,90 27,88 "/>
     <polygon id="70" class="fil29" points="0,53 -27,17 -29,19 "/>
     <polygon id="71" class="fil28" points="0,53 27,88 29,86 "/>
     <polygon id="72" class="fil27" points="0,53 -29,19 -31,21 "/>
     <polygon id="73" class="fil26" points="0,53 29,86 31,85 "/>
     <polygon id="74" class="fil25" points="0,53 -31,21 -33,23 "/>
     <polygon id="75" class="fil24" points="0,53 31,85 33,83 "/>
     <polygon id="76" class="fil23" points="0,53 -33,23 -35,25 "/>
     <polygon id="77" class="fil22" points="0,53 33,83 35,80 "/>
     <polygon id="78" class="fil21" points="0,53 -35,25 -36,27 "/>
     <polygon id="79" class="fil20" points="0,53 35,80 36,78 "/>
     <polygon id="80" class="fil19" points="0,53 -36,27 -38,30 "/>
     <polygon id="81" class="fil18" points="0,53 36,78 38,76 "/>
     <polygon id="82" class="fil17" points="0,53 -38,30 -39,32 "/>
     <polygon id="83" class="fil16" points="0,53 38,76 39,73 "/>
     <polygon id="84" class="fil15" points="0,53 -39,32 -41,35 "/>
     <polygon id="85" class="fil14" points="0,53 39,73 41,71 "/>
     <polygon id="86" class="fil13" points="0,53 -41,35 -42,37 "/>
     <polygon id="87" class="fil12" points="0,53 41,71 42,68 "/>
     <polygon id="88" class="fil11" points="0,53 -42,37 -43,40 "/>
     <polygon id="89" class="fil10" points="0,53 42,68 43,65 "/>
     <polygon id="90" class="fil9" points="0,53 -43,40 -43,43 "/>
     <polygon id="91" class="fil8" points="0,53 43,65 43,62 "/>
     <polygon id="92" class="fil7" points="0,53 -43,43 -44,46 "/>
     <polygon id="93" class="fil6" points="0,53 43,62 44,60 "/>
     <polygon id="94" class="fil5" points="0,53 -44,46 -44,48 "/>
     <polygon id="95" class="fil4" points="0,53 44,60 44,57 "/>
     <polygon id="96" class="fil3" points="0,53 -44,48 -44,51 "/>
     <polygon id="97" class="fil2" points="0,53 44,57 44,54 "/>
    </g>
    <g style="clip-path:url(#id2)">
    </g>
    <g>
    </g>
    <g style="clip-path:url(#id3)">
     <polygon class="fil0" points="60,53 105,54 105,51 "/>
     <polygon id="1" class="fil1" points="60,53 16,51 16,54 "/>
     <polygon id="2" class="fil2" points="60,53 105,51 105,48 "/>
     <polygon id="3" class="fil3" points="60,53 16,54 16,57 "/>
     <polygon id="4" class="fil4" points="60,53 105,48 104,46 "/>
     <polygon id="5" class="fil5" points="60,53 16,57 16,60 "/>
     <polygon id="6" class="fil6" points="60,53 104,46 104,43 "/>
     <polygon id="7" class="fil7" points="60,53 16,60 17,62 "/>
     <polygon id="8" class="fil8" points="60,53 104,43 103,40 "/>
     <polygon id="9" class="fil9" points="60,53 17,62 18,65 "/>
     <polygon id="10" class="fil10" points="60,53 103,40 102,37 "/>
     <polygon id="11" class="fil11" points="60,53 18,65 19,68 "/>
     <polygon id="12" class="fil12" points="60,53 102,37 101,35 "/>
     <polygon id="13" class="fil13" points="60,53 19,68 20,71 "/>
     <polygon id="14" class="fil14" points="60,53 101,35 100,32 "/>
     <polygon id="15" class="fil15" points="60,53 20,71 21,73 "/>
     <polygon id="16" class="fil16" points="60,53 100,32 98,30 "/>
     <polygon id="17" class="fil17" points="60,53 21,73 22,76 "/>
     <polygon id="18" class="fil18" points="60,53 98,30 97,27 "/>
     <polygon id="19" class="fil19" points="60,53 22,76 24,78 "/>
     <polygon id="20" class="fil20" points="60,53 97,27 95,25 "/>
     <polygon id="21" class="fil21" points="60,53 24,78 26,80 "/>
     <polygon id="22" class="fil22" points="60,53 95,25 93,23 "/>
     <polygon id="23" class="fil23" points="60,53 26,80 27,83 "/>
     <polygon id="24" class="fil24" points="60,53 93,23 91,21 "/>
     <polygon id="25" class="fil25" points="60,53 27,83 29,85 "/>
     <polygon id="26" class="fil26" points="60,53 91,21 89,19 "/>
     <polygon id="27" class="fil27" points="60,53 29,85 32,86 "/>
     <polygon id="28" class="fil28" points="60,53 89,19 87,17 "/>
     <polygon id="29" class="fil29" points="60,53 32,86 34,88 "/>
     <polygon id="30" class="fil30" points="60,53 87,17 85,15 "/>
     <polygon id="31" class="fil31" points="60,53 34,88 36,90 "/>
     <polygon id="32" class="fil32" points="60,53 85,15 82,14 "/>
     <polygon id="33" class="fil33" points="60,53 36,90 39,91 "/>
     <polygon id="34" class="fil34" points="60,53 82,14 80,13 "/>
     <polygon id="35" class="fil35" points="60,53 39,91 41,93 "/>
     <polygon id="36" class="fil36" points="60,53 80,13 77,11 "/>
     <polygon id="37" class="fil37" points="60,53 41,93 44,94 "/>
     <polygon id="38" class="fil38" points="60,53 77,11 74,10 "/>
     <polygon id="39" class="fil39" points="60,53 44,94 46,95 "/>
     <polygon id="40" class="fil40" points="60,53 74,10 72,10 "/>
     <polygon id="41" class="fil41" points="60,53 46,95 49,96 "/>
     <polygon id="42" class="fil42" points="60,53 72,10 69,9 "/>
     <polygon id="43" class="fil43" points="60,53 49,96 52,96 "/>
     <polygon id="44" class="fil44" points="60,53 69,9 66,8 "/>
     <polygon id="45" class="fil45" points="60,53 52,96 55,97 "/>
     <polygon id="46" class="fil46" points="60,53 66,8 63,8 "/>
     <polygon id="47" class="fil47" points="60,53 55,97 58,97 "/>
     <polygon id="48" class="fil48" points="60,53 63,8 60,8 "/>
     <polygon id="49" class="fil49" points="60,53 58,97 60,97 "/>
     <polygon id="50" class="fil49" points="60,53 60,8 58,8 "/>
     <polygon id="51" class="fil48" points="60,53 60,97 63,97 "/>
     <polygon id="52" class="fil47" points="60,53 58,8 55,8 "/>
     <polygon id="53" class="fil46" points="60,53 63,97 66,97 "/>
     <polygon id="54" class="fil45" points="60,53 55,8 52,9 "/>
     <polygon id="55" class="fil44" points="60,53 66,97 69,96 "/>
     <polygon id="56" class="fil43" points="60,53 52,9 49,10 "/>
     <polygon id="57" class="fil42" points="60,53 69,96 72,96 "/>
     <polygon id="58" class="fil41" points="60,53 49,10 46,10 "/>
     <polygon id="59" class="fil40" points="60,53 72,96 74,95 "/>
     <polygon id="60" class="fil39" points="60,53 46,10 44,11 "/>
     <polygon id="61" class="fil38" points="60,53 74,95 77,94 "/>
     <polygon id="62" class="fil37" points="60,53 44,11 41,13 "/>
     <polygon id="63" class="fil36" points="60,53 77,94 80,93 "/>
     <polygon id="64" class="fil35" points="60,53 41,13 39,14 "/>
     <polygon id="65" class="fil34" points="60,53 80,93 82,91 "/>
     <polygon id="66" class="fil33" points="60,53 39,14 36,15 "/>
     <polygon id="67" class="fil32" points="60,53 82,91 85,90 "/>
     <polygon id="68" class="fil31" points="60,53 36,15 34,17 "/>
     <polygon id="69" class="fil30" points="60,53 85,90 87,88 "/>
     <polygon id="70" class="fil29" points="60,53 34,17 32,19 "/>
     <polygon id="71" class="fil28" points="60,53 87,88 89,86 "/>
     <polygon id="72" class="fil27" points="60,53 32,19 29,21 "/>
     <polygon id="73" class="fil26" points="60,53 89,86 91,85 "/>
     <polygon id="74" class="fil25" points="60,53 29,21 27,23 "/>
     <polygon id="75" class="fil24" points="60,53 91,85 93,83 "/>
     <polygon id="76" class="fil23" points="60,53 27,23 26,25 "/>
     <polygon id="77" class="fil22" points="60,53 93,83 95,80 "/>
     <polygon id="78" class="fil21" points="60,53 26,25 24,27 "/>
     <polygon id="79" class="fil20" points="60,53 95,80 97,78 "/>
     <polygon id="80" class="fil19" points="60,53 24,27 22,30 "/>
     <polygon id="81" class="fil18" points="60,53 97,78 98,76 "/>
     <polygon id="82" class="fil17" points="60,53 22,30 21,32 "/>
     <polygon id="83" class="fil16" points="60,53 98,76 100,73 "/>
     <polygon id="84" class="fil15" points="60,53 21,32 20,35 "/>
     <polygon id="85" class="fil14" points="60,53 100,73 101,71 "/>
     <polygon id="86" class="fil13" points="60,53 20,35 19,37 "/>
     <polygon id="87" class="fil12" points="60,53 101,71 102,68 "/>
     <polygon id="88" class="fil11" points="60,53 19,37 18,40 "/>
     <polygon id="89" class="fil10" points="60,53 102,68 103,65 "/>
     <polygon id="90" class="fil9" points="60,53 18,40 17,43 "/>
     <polygon id="91" class="fil8" points="60,53 103,65 104,62 "/>
     <polygon id="92" class="fil7" points="60,53 17,43 16,46 "/>
     <polygon id="93" class="fil6" points="60,53 104,62 104,60 "/>
     <polygon id="94" class="fil5" points="60,53 16,46 16,48 "/>
     <polygon id="95" class="fil4" points="60,53 104,60 105,57 "/>
     <polygon id="96" class="fil3" points="60,53 16,48 16,51 "/>
     <polygon id="97" class="fil2" points="60,53 105,57 105,54 "/>
    </g>
    <g style="clip-path:url(#id4)">
    </g>
    <g>
    </g>
    <g style="clip-path:url(#id5)">
     <polygon class="fil0" points="30,0 75,1 75,-1 "/>
     <polygon id="1" class="fil1" points="30,0 -14,-1 -14,1 "/>
     <polygon id="2" class="fil2" points="30,0 75,-1 74,-4 "/>
     <polygon id="3" class="fil3" points="30,0 -14,1 -14,4 "/>
     <polygon id="4" class="fil4" points="30,0 74,-4 74,-7 "/>
     <polygon id="5" class="fil5" points="30,0 -14,4 -14,7 "/>
     <polygon id="6" class="fil6" points="30,0 74,-7 74,-10 "/>
     <polygon id="7" class="fil7" points="30,0 -14,7 -13,10 "/>
     <polygon id="8" class="fil8" points="30,0 74,-10 73,-13 "/>
     <polygon id="9" class="fil9" points="30,0 -13,10 -12,13 "/>
     <polygon id="10" class="fil10" points="30,0 73,-13 72,-15 "/>
     <polygon id="11" class="fil11" points="30,0 -12,13 -12,15 "/>
     <polygon id="12" class="fil12" points="30,0 72,-15 71,-18 "/>
     <polygon id="13" class="fil13" points="30,0 -12,15 -10,18 "/>
     <polygon id="14" class="fil14" points="30,0 71,-18 70,-21 "/>
     <polygon id="15" class="fil15" points="30,0 -10,18 -9,21 "/>
     <polygon id="16" class="fil16" points="30,0 70,-21 68,-23 "/>
     <polygon id="17" class="fil17" points="30,0 -9,21 -8,23 "/>
     <polygon id="18" class="fil18" points="30,0 68,-23 67,-25 "/>
     <polygon id="19" class="fil19" points="30,0 -8,23 -6,25 "/>
     <polygon id="20" class="fil20" points="30,0 67,-25 65,-28 "/>
     <polygon id="21" class="fil21" points="30,0 -6,25 -5,28 "/>
     <polygon id="22" class="fil22" points="30,0 65,-28 63,-30 "/>
     <polygon id="23" class="fil23" points="30,0 -5,28 -3,30 "/>
     <polygon id="24" class="fil24" points="30,0 63,-30 61,-32 "/>
     <polygon id="25" class="fil25" points="30,0 -3,30 -1,32 "/>
     <polygon id="26" class="fil26" points="30,0 61,-32 59,-34 "/>
     <polygon id="27" class="fil27" points="30,0 -1,32 1,34 "/>
     <polygon id="28" class="fil28" points="30,0 59,-34 57,-36 "/>
     <polygon id="29" class="fil29" points="30,0 1,34 4,36 "/>
     <polygon id="30" class="fil30" points="30,0 57,-36 54,-37 "/>
     <polygon id="31" class="fil31" points="30,0 4,36 6,37 "/>
     <polygon id="32" class="fil32" points="30,0 54,-37 52,-39 "/>
     <polygon id="33" class="fil33" points="30,0 6,37 8,39 "/>
     <polygon id="34" class="fil34" points="30,0 52,-39 49,-40 "/>
     <polygon id="35" class="fil35" points="30,0 8,39 11,40 "/>
     <polygon id="36" class="fil36" points="30,0 49,-40 47,-41 "/>
     <polygon id="37" class="fil37" points="30,0 11,40 14,41 "/>
     <polygon id="38" class="fil38" points="30,0 47,-41 44,-42 "/>
     <polygon id="39" class="fil39" points="30,0 14,41 16,42 "/>
     <polygon id="40" class="fil40" points="30,0 44,-42 41,-43 "/>
     <polygon id="41" class="fil41" points="30,0 16,42 19,43 "/>
     <polygon id="42" class="fil42" points="30,0 41,-43 39,-44 "/>
     <polygon id="43" class="fil43" points="30,0 19,43 22,44 "/>
     <polygon id="44" class="fil44" points="30,0 39,-44 36,-44 "/>
     <polygon id="45" class="fil45" points="30,0 22,44 25,44 "/>
     <polygon id="46" class="fil46" points="30,0 36,-44 33,-44 "/>
     <polygon id="47" class="fil47" points="30,0 25,44 27,44 "/>
     <polygon id="48" class="fil48" points="30,0 33,-44 30,-44 "/>
     <polygon id="49" class="fil49" points="30,0 27,44 30,44 "/>
     <polygon id="50" class="fil49" points="30,0 30,-44 27,-44 "/>
     <polygon id="51" class="fil48" points="30,0 30,44 33,44 "/>
     <polygon id="52" class="fil47" points="30,0 27,-44 25,-44 "/>
     <polygon id="53" class="fil46" points="30,0 33,44 36,44 "/>
     <polygon id="54" class="fil45" points="30,0 25,-44 22,-44 "/>
     <polygon id="55" class="fil44" points="30,0 36,44 39,44 "/>
     <polygon id="56" class="fil43" points="30,0 22,-44 19,-43 "/>
     <polygon id="57" class="fil42" points="30,0 39,44 41,43 "/>
     <polygon id="58" class="fil41" points="30,0 19,-43 16,-42 "/>
     <polygon id="59" class="fil40" points="30,0 41,43 44,42 "/>
     <polygon id="60" class="fil39" points="30,0 16,-42 14,-41 "/>
     <polygon id="61" class="fil38" points="30,0 44,42 47,41 "/>
     <polygon id="62" class="fil37" points="30,0 14,-41 11,-40 "/>
     <polygon id="63" class="fil36" points="30,0 47,41 49,40 "/>
     <polygon id="64" class="fil35" points="30,0 11,-40 8,-39 "/>
     <polygon id="65" class="fil34" points="30,0 49,40 52,39 "/>
     <polygon id="66" class="fil33" points="30,0 8,-39 6,-37 "/>
     <polygon id="67" class="fil32" points="30,0 52,39 54,37 "/>
     <polygon id="68" class="fil31" points="30,0 6,-37 4,-36 "/>
     <polygon id="69" class="fil30" points="30,0 54,37 57,36 "/>
     <polygon id="70" class="fil29" points="30,0 4,-36 1,-34 "/>
     <polygon id="71" class="fil28" points="30,0 57,36 59,34 "/>
     <polygon id="72" class="fil27" points="30,0 1,-34 -1,-32 "/>
     <polygon id="73" class="fil26" points="30,0 59,34 61,32 "/>
     <polygon id="74" class="fil25" points="30,0 -1,-32 -3,-30 "/>
     <polygon id="75" class="fil24" points="30,0 61,32 63,30 "/>
     <polygon id="76" class="fil23" points="30,0 -3,-30 -5,-28 "/>
     <polygon id="77" class="fil22" points="30,0 63,30 65,28 "/>
     <polygon id="78" class="fil21" points="30,0 -5,-28 -6,-25 "/>
     <polygon id="79" class="fil20" points="30,0 65,28 67,25 "/>
     <polygon id="80" class="fil19" points="30,0 -6,-25 -8,-23 "/>
     <polygon id="81" class="fil18" points="30,0 67,25 68,23 "/>
     <polygon id="82" class="fil17" points="30,0 -8,-23 -9,-21 "/>
     <polygon id="83" class="fil16" points="30,0 68,23 70,21 "/>
     <polygon id="84" class="fil15" points="30,0 -9,-21 -10,-18 "/>
     <polygon id="85" class="fil14" points="30,0 70,21 71,18 "/>
     <polygon id="86" class="fil13" points="30,0 -10,-18 -12,-15 "/>
     <polygon id="87" class="fil12" points="30,0 71,18 72,15 "/>
     <polygon id="88" class="fil11" points="30,0 -12,-15 -12,-13 "/>
     <polygon id="89" class="fil10" points="30,0 72,15 73,13 "/>
     <polygon id="90" class="fil9" points="30,0 -12,-13 -13,-10 "/>
     <polygon id="91" class="fil8" points="30,0 73,13 74,10 "/>
     <polygon id="92" class="fil7" points="30,0 -13,-10 -14,-7 "/>
     <polygon id="93" class="fil6" points="30,0 74,10 74,7 "/>
     <polygon id="94" class="fil5" points="30,0 -14,-7 -14,-4 "/>
     <polygon id="95" class="fil4" points="30,0 74,7 74,4 "/>
     <polygon id="96" class="fil3" points="30,0 -14,-4 -14,-1 "/>
     <polygon id="97" class="fil2" points="30,0 74,4 75,1 "/>
    </g>
    <g style="clip-path:url(#id6)">
    </g>
    <g>
    </g>
    <g style="clip-path:url(#id7)">
     <polygon class="fil0" points="30,105 75,107 75,104 "/>
     <polygon id="1" class="fil1" points="30,105 -14,104 -14,107 "/>
     <polygon id="2" class="fil2" points="30,105 75,104 74,101 "/>
     <polygon id="3" class="fil3" points="30,105 -14,107 -14,109 "/>
     <polygon id="4" class="fil4" points="30,105 74,101 74,98 "/>
     <polygon id="5" class="fil5" points="30,105 -14,109 -14,112 "/>
     <polygon id="6" class="fil6" points="30,105 74,98 74,95 "/>
     <polygon id="7" class="fil7" points="30,105 -14,112 -13,115 "/>
     <polygon id="8" class="fil8" points="30,105 74,95 73,93 "/>
     <polygon id="9" class="fil9" points="30,105 -13,115 -12,118 "/>
     <polygon id="10" class="fil10" points="30,105 73,93 72,90 "/>
     <polygon id="11" class="fil11" points="30,105 -12,118 -12,121 "/>
     <polygon id="12" class="fil12" points="30,105 72,90 71,87 "/>
     <polygon id="13" class="fil13" points="30,105 -12,121 -10,123 "/>
     <polygon id="14" class="fil14" points="30,105 71,87 70,85 "/>
     <polygon id="15" class="fil15" points="30,105 -10,123 -9,126 "/>
     <polygon id="16" class="fil16" points="30,105 70,85 68,82 "/>
     <polygon id="17" class="fil17" points="30,105 -9,126 -8,128 "/>
     <polygon id="18" class="fil18" points="30,105 68,82 67,80 "/>
     <polygon id="19" class="fil19" points="30,105 -8,128 -6,131 "/>
     <polygon id="20" class="fil20" points="30,105 67,80 65,77 "/>
     <polygon id="21" class="fil21" points="30,105 -6,131 -5,133 "/>
     <polygon id="22" class="fil22" points="30,105 65,77 63,75 "/>
     <polygon id="23" class="fil23" points="30,105 -5,133 -3,135 "/>
     <polygon id="24" class="fil24" points="30,105 63,75 61,73 "/>
     <polygon id="25" class="fil25" points="30,105 -3,135 -1,137 "/>
     <polygon id="26" class="fil26" points="30,105 61,73 59,71 "/>
     <polygon id="27" class="fil27" points="30,105 -1,137 1,139 "/>
     <polygon id="28" class="fil28" points="30,105 59,71 57,70 "/>
     <polygon id="29" class="fil29" points="30,105 1,139 4,141 "/>
     <polygon id="30" class="fil30" points="30,105 57,70 54,68 "/>
     <polygon id="31" class="fil31" points="30,105 4,141 6,142 "/>
     <polygon id="32" class="fil32" points="30,105 54,68 52,66 "/>
     <polygon id="33" class="fil33" points="30,105 6,142 8,144 "/>
     <polygon id="34" class="fil34" points="30,105 52,66 49,65 "/>
     <polygon id="35" class="fil35" points="30,105 8,144 11,145 "/>
     <polygon id="36" class="fil36" points="30,105 49,65 47,64 "/>
     <polygon id="37" class="fil37" points="30,105 11,145 14,146 "/>
     <polygon id="38" class="fil38" points="30,105 47,64 44,63 "/>
     <polygon id="39" class="fil39" points="30,105 14,146 16,147 "/>
     <polygon id="40" class="fil40" points="30,105 44,63 41,62 "/>
     <polygon id="41" class="fil41" points="30,105 16,147 19,148 "/>
     <polygon id="42" class="fil42" points="30,105 41,62 39,62 "/>
     <polygon id="43" class="fil43" points="30,105 19,148 22,149 "/>
     <polygon id="44" class="fil44" points="30,105 39,62 36,61 "/>
     <polygon id="45" class="fil45" points="30,105 22,149 25,149 "/>
     <polygon id="46" class="fil46" points="30,105 36,61 33,61 "/>
     <polygon id="47" class="fil47" points="30,105 25,149 27,150 "/>
     <polygon id="48" class="fil48" points="30,105 33,61 30,61 "/>
     <polygon id="49" class="fil49" points="30,105 27,150 30,150 "/>
     <polygon id="50" class="fil49" points="30,105 30,61 27,61 "/>
     <polygon id="51" class="fil48" points="30,105 30,150 33,150 "/>
     <polygon id="52" class="fil47" points="30,105 27,61 25,61 "/>
     <polygon id="53" class="fil46" points="30,105 33,150 36,149 "/>
     <polygon id="54" class="fil45" points="30,105 25,61 22,62 "/>
     <polygon id="55" class="fil44" points="30,105 36,149 39,149 "/>
     <polygon id="56" class="fil43" points="30,105 22,62 19,62 "/>
     <polygon id="57" class="fil42" points="30,105 39,149 41,148 "/>
     <polygon id="58" class="fil41" points="30,105 19,62 16,63 "/>
     <polygon id="59" class="fil40" points="30,105 41,148 44,147 "/>
     <polygon id="60" class="fil39" points="30,105 16,63 14,64 "/>
     <polygon id="61" class="fil38" points="30,105 44,147 47,146 "/>
     <polygon id="62" class="fil37" points="30,105 14,64 11,65 "/>
     <polygon id="63" class="fil36" points="30,105 47,146 49,145 "/>
     <polygon id="64" class="fil35" points="30,105 11,65 8,66 "/>
     <polygon id="65" class="fil34" points="30,105 49,145 52,144 "/>
     <polygon id="66" class="fil33" points="30,105 8,66 6,68 "/>
     <polygon id="67" class="fil32" points="30,105 52,144 54,142 "/>
     <polygon id="68" class="fil31" points="30,105 6,68 4,70 "/>
     <polygon id="69" class="fil30" points="30,105 54,142 57,141 "/>
     <polygon id="70" class="fil29" points="30,105 4,70 1,71 "/>
     <polygon id="71" class="fil28" points="30,105 57,141 59,139 "/>
     <polygon id="72" class="fil27" points="30,105 1,71 -1,73 "/>
     <polygon id="73" class="fil26" points="30,105 59,139 61,137 "/>
     <polygon id="74" class="fil25" points="30,105 -1,73 -3,75 "/>
     <polygon id="75" class="fil24" points="30,105 61,137 63,135 "/>
     <polygon id="76" class="fil23" points="30,105 -3,75 -5,77 "/>
     <polygon id="77" class="fil22" points="30,105 63,135 65,133 "/>
     <polygon id="78" class="fil21" points="30,105 -5,77 -6,80 "/>
     <polygon id="79" class="fil20" points="30,105 65,133 67,131 "/>
     <polygon id="80" class="fil19" points="30,105 -6,80 -8,82 "/>
     <polygon id="81" class="fil18" points="30,105 67,131 68,128 "/>
     <polygon id="82" class="fil17" points="30,105 -8,82 -9,85 "/>
     <polygon id="83" class="fil16" points="30,105 68,128 70,126 "/>
     <polygon id="84" class="fil15" points="30,105 -9,85 -10,87 "/>
     <polygon id="85" class="fil14" points="30,105 70,126 71,123 "/>
     <polygon id="86" class="fil13" points="30,105 -10,87 -12,90 "/>
     <polygon id="87" class="fil12" points="30,105 71,123 72,121 "/>
     <polygon id="88" class="fil11" points="30,105 -12,90 -12,93 "/>
     <polygon id="89" class="fil10" points="30,105 72,121 73,118 "/>
     <polygon id="90" class="fil9" points="30,105 -12,93 -13,95 "/>
     <polygon id="91" class="fil8" points="30,105 73,118 74,115 "/>
     <polygon id="92" class="fil7" points="30,105 -13,95 -14,98 "/>
     <polygon id="93" class="fil6" points="30,105 74,115 74,112 "/>
     <polygon id="94" class="fil5" points="30,105 -14,98 -14,101 "/>
     <polygon id="95" class="fil4" points="30,105 74,112 74,109 "/>
     <polygon id="96" class="fil3" points="30,105 -14,101 -14,104 "/>
     <polygon id="97" class="fil2" points="30,105 74,109 75,107 "/>
    </g>
    <g style="clip-path:url(#id8)">
    </g>
   </g>
  </g>
  <polygon class="fil50" points="0,0 60,0 60,105 0,105 "/>
 </g>
</svg>
